<svg width="28" height="29" fill="none" xmlns="http://www.w3.org/2000/svg"><path d="M27.68 22.613l-8.4-8.4 3.313-3.313 1.96-1.96L27.4 6.092c.793-.793.793-2.1 0-2.893L25.02.82a2.048 2.048 0 00-1.447-.607c-.56 0-1.073.233-1.447.607L19.28 3.666l-1.96 1.96-3.314 3.314L5.7.633C5.186.12 4.253.12 3.74.633L.426 3.946c-.56.514-.56 1.4 0 1.96l.98.98 2.66 2.66L6.68 12.16l2.053 2.053-7.491 7.491c-.14.062-.215.188-.256.349l-.98 5.6c0 .187.047.327.14.42.094.093.187.14.327.14h.093l5.384-.995c.037.01.077.015.123.015.14 0 .28-.047.327-.14l7.606-7.607.607.607L15.92 21.4l6.486 6.486c.234.234.514.327.794.327s.56-.093.746-.327l3.734-3.733c.42-.42.42-1.12 0-1.54zM6.073 26.066L4.44 24.433l15.516-15.47 1.61 1.61L6.073 26.066zM22.78 1.473c.42-.42 1.166-.42 1.586 0l2.38 2.38c.42.42.42 1.167 0 1.587l-2.52 2.52-3.966-3.967 2.52-2.52zm-3.174 3.173L21.59 6.63l1.983 1.983-1.307 1.307L18.3 5.953l1.306-1.307zM8.99 13.163l1.003-1.004a.451.451 0 000-.653.451.451 0 00-.653 0L8.336 12.51l-.676-.676L9.293 10.2a.451.451 0 000-.654.451.451 0 00-.653 0L7.006 11.18l-.653-.654.98-.98a.451.451 0 000-.653.451.451 0 00-.653 0l-.98.98-.654-.654L6.68 7.586a.451.451 0 000-.653.451.451 0 00-.654 0L4.393 8.566l-.7-.7.98-.98a.451.451 0 000-.653.451.451 0 00-.653 0l-.98.98-.654-.653L4.02 4.926a.451.451 0 000-.653.451.451 0 00-.654 0L1.733 5.906l-.653-.653a.451.451 0 010-.653l3.313-3.314a.424.424 0 01.327-.14c.093 0 .233.047.326.14l8.307 8.307-3.967 3.966-.396-.396zm8.656-6.51l1.633 1.633-15.516 15.47-1.61-1.61L17.646 6.653zM1.78 23.08l1.53 1.53a.484.484 0 00.103.15L5.1 26.445l-4.02.694.7-4.06zm25.246.42l-3.733 3.733c-.047.046-.187.046-.233 0l-4.83-4.83 1.656-1.657a.451.451 0 000-.653.451.451 0 00-.653 0l-1.657 1.657-.676-.677.98-.98a.451.451 0 000-.654.451.451 0 00-.654 0l-.98.98-.653-.653 1.633-1.633a.451.451 0 000-.653.451.451 0 00-.653 0l-1.633 1.633-.28-.28 3.966-3.967 8.4 8.4c.047.047.047.187 0 .234z" fill="#E3B873"/></svg>